<?xml version="1.0" standalone="no"?>
<!DOCTYPE svg PUBLIC "-//W3C//DTD SVG 20010904//EN"
 "http://www.w3.org/TR/2001/REC-SVG-20010904/DTD/svg10.dtd">
<svg version="1.0" xmlns="http://www.w3.org/2000/svg"
 width="4096.000000pt" height="4096.000000pt" viewBox="0 0 4096.000000 4096.000000"
 preserveAspectRatio="xMidYMid meet">
<metadata>
Created by potrace 1.11, written by Peter Selinger 2001-2013
</metadata>
<g transform="translate(0.000000,4096.000000) scale(0.100000,-0.100000)"
fill="#000000" stroke="none">
<path d="M20398 33995 c-2 -1 -88 -5 -193 -9 -104 -3 -210 -8 -235 -11 -25 -2
-101 -9 -170 -15 -136 -11 -206 -18 -260 -25 -19 -2 -60 -7 -90 -10 -352 -39
-865 -135 -1290 -244 -190 -48 -577 -163 -645 -191 -11 -4 -81 -29 -155 -55
-272 -94 -633 -241 -896 -365 -58 -27 -111 -47 -117 -43 -5 3 -8 2 -4 -3 3 -5
-86 -56 -198 -112 -214 -108 -503 -270 -707 -398 -135 -84 -380 -245 -388
-255 -3 -3 -23 -17 -45 -31 -40 -25 -263 -186 -319 -230 -16 -13 -66 -51 -110
-86 -45 -34 -88 -68 -96 -75 -99 -80 -177 -144 -186 -152 -6 -5 -38 -32 -70
-60 -310 -266 -685 -633 -944 -924 -36 -41 -69 -79 -75 -85 -5 -6 -35 -40 -65
-76 -30 -36 -61 -71 -68 -79 -29 -31 -283 -352 -352 -446 -41 -55 -78 -101
-82 -103 -4 -2 -8 -8 -8 -14 0 -8 -43 -71 -60 -88 -3 -3 -37 -52 -75 -110 -39
-58 -72 -107 -75 -110 -14 -14 -153 -234 -261 -412 -42 -70 -80 -124 -84 -120
-5 4 -5 1 -1 -6 5 -7 -4 -33 -21 -60 -40 -65 -54 -92 -163 -297 -73 -137 -100
-180 -115 -181 -54 -4 -168 -16 -234 -25 -41 -6 -88 -13 -105 -15 -431 -53
-1021 -193 -1475 -349 -817 -281 -1538 -664 -2231 -1187 -107 -80 -204 -155
-215 -165 -63 -57 -140 -118 -147 -116 -4 2 -8 -1 -8 -6 0 -5 -30 -34 -67 -66
-168 -142 -476 -445 -673 -660 -131 -144 -325 -379 -465 -565 -44 -58 -82
-107 -85 -110 -3 -3 -9 -13 -15 -22 -5 -9 -48 -72 -95 -140 -147 -213 -317
-489 -445 -723 -69 -127 -285 -566 -285 -580 0 -2 -11 -28 -24 -57 -25 -55
-163 -401 -172 -433 -2 -5 -28 -84 -59 -174 -57 -166 -88 -269 -130 -422 -32
-115 -85 -322 -90 -351 -3 -13 -7 -34 -10 -48 -3 -14 -7 -34 -9 -45 -3 -11 -9
-40 -16 -65 -6 -25 -13 -63 -16 -85 -3 -22 -9 -56 -14 -75 -5 -19 -11 -51 -14
-70 -3 -19 -14 -93 -25 -165 -11 -71 -23 -149 -25 -172 -11 -82 -27 -229 -32
-283 -3 -30 -7 -73 -9 -95 -3 -21 -7 -96 -11 -165 -4 -73 -11 -128 -18 -132
-7 -5 -7 -8 0 -8 6 0 9 -19 7 -47 -10 -179 -4 -659 12 -875 8 -114 16 -212 20
-243 2 -16 6 -57 10 -90 3 -33 10 -94 16 -135 5 -41 11 -93 14 -115 3 -22 10
-67 15 -99 6 -33 9 -65 6 -73 -3 -7 -2 -13 3 -13 4 0 13 -37 20 -82 7 -46 22
-123 32 -173 10 -49 21 -105 24 -124 3 -19 8 -37 10 -41 2 -3 6 -17 9 -31 2
-13 7 -37 11 -53 6 -23 5 -28 -6 -22 -10 5 -10 4 1 -6 8 -7 16 -18 17 -23 5
-32 79 -305 104 -387 17 -54 27 -102 24 -108 -3 -5 -2 -10 4 -10 12 0 33 -69
25 -82 -3 -4 0 -8 6 -8 7 0 10 -7 6 -15 -3 -8 -1 -15 5 -15 6 0 9 -7 5 -15 -3
-8 -2 -15 3 -15 4 0 17 -30 29 -67 22 -71 76 -224 91 -258 24 -54 32 -85 25
-96 -4 -7 -3 -10 3 -6 5 3 33 -51 63 -121 29 -70 64 -151 77 -180 13 -29 20
-58 17 -64 -4 -6 -3 -8 3 -5 6 4 22 -20 38 -56 15 -34 42 -92 60 -129 18 -36
31 -69 28 -72 -4 -3 -1 -6 6 -6 11 0 39 -59 32 -69 -1 -2 1 -7 7 -10 17 -12
62 -102 56 -113 -4 -7 -2 -8 4 -4 7 4 12 4 12 -1 0 -4 39 -75 86 -158 48 -82
94 -163 103 -180 9 -16 42 -69 74 -117 31 -48 57 -92 57 -97 0 -5 3 -11 8 -13
16 -7 71 -101 65 -111 -3 -6 -1 -7 6 -3 6 4 14 0 18 -11 4 -10 9 -20 13 -23
12 -11 44 -65 42 -72 -1 -5 2 -8 6 -8 15 0 123 -160 116 -172 -4 -6 -3 -8 4
-4 6 3 21 -8 33 -26 26 -37 30 -42 60 -78 12 -14 33 -41 47 -60 42 -55 130
-163 154 -187 13 -13 19 -23 14 -23 -5 0 5 -12 21 -27 16 -16 58 -62 94 -103
102 -119 128 -148 275 -301 35 -36 61 -69 59 -73 -3 -3 -2 -4 2 -1 10 8 153
-137 146 -148 -3 -6 -1 -7 5 -3 6 3 17 -3 25 -14 7 -11 17 -17 22 -12 4 4 5
-1 2 -10 -4 -11 -2 -15 6 -13 7 3 51 -33 100 -79 48 -45 89 -80 92 -78 3 3 5
-3 5 -13 0 -10 3 -15 6 -12 6 6 119 -87 171 -140 12 -13 25 -23 29 -23 12 0
79 -64 76 -73 -1 -5 2 -6 6 -3 5 3 20 -4 33 -15 13 -11 36 -28 52 -37 15 -9
25 -22 23 -29 -3 -6 1 -10 7 -7 7 2 22 -4 32 -13 11 -10 54 -43 95 -73 41 -30
77 -57 80 -61 3 -3 31 -23 63 -43 34 -22 55 -41 51 -48 -4 -7 -3 -8 4 -4 11 7
102 -49 110 -66 2 -5 10 -8 18 -8 8 0 14 -4 14 -9 0 -5 8 -11 18 -15 9 -3 37
-19 62 -36 25 -16 52 -33 60 -37 8 -3 17 -9 20 -13 3 -3 62 -40 132 -82 70
-41 124 -79 120 -83 -4 -5 -2 -5 5 -2 6 4 19 0 27 -9 9 -8 16 -13 16 -9 0 3
22 -6 49 -22 27 -15 47 -31 44 -37 -3 -5 -2 -6 4 -3 10 7 143 -58 154 -75 3
-5 9 -9 13 -8 12 4 66 -22 62 -29 -3 -4 5 -8 17 -8 12 -1 23 -7 25 -13 2 -5 7
-8 12 -5 5 3 16 -3 26 -12 10 -10 19 -16 21 -14 9 8 62 -22 56 -32 -3 -5 -1
-7 5 -3 14 9 83 -25 75 -37 -3 -6 -1 -7 5 -3 6 4 35 -4 64 -17 29 -13 68 -29
85 -36 18 -8 30 -18 26 -24 -3 -6 -1 -7 5 -3 6 4 42 -6 79 -22 38 -17 78 -33
90 -37 13 -3 23 -10 23 -14 0 -4 6 -8 14 -8 8 0 49 -13 92 -30 44 -17 87 -33
97 -37 10 -3 16 -10 13 -15 -3 -5 3 -7 14 -4 11 3 35 -2 54 -11 19 -9 39 -16
46 -16 6 0 8 -5 4 -12 -4 -7 -3 -8 4 -4 16 10 93 -15 85 -27 -3 -6 -1 -7 6 -3
6 4 28 2 49 -5 20 -7 39 -13 42 -14 3 0 19 -5 35 -12 46 -17 169 -53 183 -53
7 0 12 -3 12 -7 0 -5 14 -9 31 -10 17 -1 37 -8 45 -14 8 -6 14 -9 14 -6 0 3
30 -3 68 -14 37 -11 76 -22 87 -24 63 -14 121 -28 130 -33 5 -3 25 -7 44 -9
20 -2 38 -7 41 -11 3 -4 13 -7 23 -8 66 -3 69 -4 63 -20 -5 -13 -4 -14 7 -6
13 11 36 10 80 -4 23 -7 45 -11 85 -13 13 0 21 -4 19 -8 -3 -5 11 -8 31 -9 30
0 177 -23 252 -39 8 -2 30 -4 48 -4 18 -1 31 -4 29 -8 -3 -5 11 -8 31 -8 21 0
64 -4 97 -8 33 -3 83 -9 110 -12 28 -3 64 -8 80 -11 17 -2 66 -7 110 -10 99
-6 160 -12 160 -13 0 -2 156 -8 265 -12 41 -1 81 -7 89 -13 11 -8 13 -8 7 2
-8 13 19 13 41 -1 6 -4 15 -3 18 3 5 8 11 8 19 1 7 -6 15 -9 18 -6 5 5 487 19
668 19 175 0 395 -10 408 -18 7 -4 12 -2 12 5 0 9 3 10 11 2 6 -6 25 -7 47 -4
20 4 52 4 70 0 17 -3 32 -4 32 0 0 3 32 4 70 1 39 -3 70 -3 70 0 0 6 114 3
143 -4 9 -2 17 -1 17 3 0 7 87 4 108 -4 6 -2 12 -1 12 3 0 9 53 8 68 -2 7 -4
12 -2 12 4 0 8 6 8 20 0 11 -6 20 -7 20 -3 0 4 36 6 80 3 44 -3 80 -3 80 0 0
5 139 2 178 -4 12 -2 22 0 22 3 0 8 54 6 68 -3 7 -4 12 -2 12 4 0 7 6 8 19 0
12 -6 22 -6 25 -1 3 5 21 5 41 1 19 -4 35 -5 35 -1 0 7 110 4 143 -3 9 -2 17
-1 17 3 0 7 87 4 108 -4 6 -2 12 -1 12 3 0 9 53 8 68 -2 7 -4 12 -2 12 4 0 8
6 8 20 0 11 -6 20 -7 20 -3 0 4 36 6 80 3 44 -3 80 -3 80 0 0 5 139 2 178 -4
12 -2 22 0 22 3 0 8 54 6 68 -3 7 -4 12 -2 12 4 0 8 6 8 20 0 11 -6 20 -7 20
-2 0 5 18 6 40 2 22 -4 40 -4 40 -1 0 7 111 4 143 -3 9 -2 17 -1 17 3 0 7 87
4 108 -4 6 -2 12 -1 12 3 0 9 53 8 68 -2 7 -4 12 -2 12 4 0 8 6 8 20 0 11 -6
20 -7 20 -3 0 4 36 6 80 3 44 -3 80 -3 80 0 0 5 139 2 178 -4 12 -2 22 0 22 3
0 8 54 6 68 -3 7 -4 12 -2 12 4 0 7 6 8 19 0 12 -6 22 -6 25 -1 3 5 21 5 41 1
19 -4 35 -5 35 -1 0 7 110 4 143 -3 9 -2 17 -1 17 3 0 7 87 4 108 -4 6 -2 12
-1 12 3 0 9 53 8 68 -2 7 -4 12 -2 12 4 0 8 6 8 20 0 11 -6 20 -7 20 -3 0 4
36 6 80 3 44 -3 80 -2 80 2 0 4 11 3 25 -2 15 -6 26 -6 30 0 4 7 13 6 26 0 10
-6 19 -7 19 -3 0 8 124 7 146 -1 8 -3 16 -1 19 4 3 5 11 7 18 4 18 -6 117 -10
117 -4 0 6 114 2 143 -4 9 -2 17 -1 17 2 0 7 156 5 213 -1 15 -2 27 -1 27 2 0
6 180 4 278 -2 23 -1 42 0 42 3 0 5 186 3 278 -3 23 -1 42 0 42 3 0 5 186 3
278 -3 23 -1 42 1 42 5 0 4 14 3 30 -2 20 -6 30 -5 30 2 0 7 5 6 14 -1 8 -7
16 -8 19 -4 3 4 55 6 116 3 61 -3 111 -3 111 0 0 5 186 3 278 -3 23 -1 42 0
42 3 0 5 186 3 278 -3 23 -1 42 0 42 3 0 5 186 3 278 -3 23 -1 42 0 42 3 0 5
139 2 178 -4 12 -2 22 0 22 3 0 8 54 6 68 -3 7 -4 12 -2 12 4 0 8 6 8 20 0 11
-6 20 -7 20 -3 0 4 36 6 80 3 44 -3 80 -3 80 0 0 5 139 2 178 -4 12 -2 22 0
22 3 0 8 54 6 68 -3 7 -4 12 -2 12 4 0 7 6 8 19 0 12 -6 22 -6 25 -1 3 5 21 5
41 1 19 -4 35 -5 35 -1 0 7 110 4 143 -3 9 -2 17 -1 17 3 0 7 87 4 108 -4 6
-2 12 -1 12 3 0 9 53 8 68 -2 7 -4 12 -2 12 4 0 8 6 8 20 0 11 -6 20 -7 20 -3
0 4 36 6 80 3 44 -3 80 -2 80 2 0 4 11 3 25 -2 15 -6 26 -6 30 0 4 7 13 6 26
0 10 -6 19 -7 19 -3 0 8 124 7 146 -1 8 -3 15 -2 18 2 2 4 34 5 70 2 36 -3 66
-3 66 0 0 6 114 3 143 -4 9 -2 17 -1 17 3 0 7 87 4 108 -4 6 -2 12 -1 12 3 0
9 53 8 68 -2 7 -4 12 -2 12 4 0 8 6 8 20 0 11 -6 20 -7 20 -3 0 4 36 6 80 3
44 -3 80 -3 80 0 0 5 139 2 178 -4 12 -2 22 0 22 3 0 8 54 6 68 -3 7 -4 12 -2
12 4 0 7 6 8 19 0 14 -7 22 -7 26 0 5 8 11 7 21 -1 8 -6 14 -8 14 -3 0 11 51
10 68 0 7 -4 12 -2 12 4 0 8 6 8 20 0 11 -6 20 -7 20 -3 0 4 36 6 80 3 44 -3
80 -3 80 0 0 5 139 2 178 -4 12 -2 22 0 22 3 0 8 54 6 68 -3 7 -4 12 -3 12 1
0 9 84 7 108 -2 6 -2 12 -1 12 3 0 7 109 6 143 -2 9 -2 17 -1 17 3 0 7 87 4
108 -4 6 -2 12 -1 12 3 0 9 53 8 68 -2 7 -4 12 -2 12 5 0 8 4 8 13 1 7 -6 18
-8 24 -4 6 4 45 5 87 2 42 -3 76 -3 76 0 0 5 139 2 178 -4 12 -2 22 0 22 3 0
8 54 6 68 -3 7 -4 12 -2 12 4 0 7 6 8 19 0 12 -6 22 -6 25 -1 3 5 21 5 41 1
19 -4 35 -5 35 -1 0 7 110 4 143 -3 9 -2 17 -1 17 2 0 8 146 6 166 -2 7 -3 16
-1 19 4 3 5 18 5 35 0 16 -5 32 -5 34 -2 5 9 94 8 102 -1 3 -3 12 -3 19 0 15
5 4272 -4245 4267 -4260 -1 -5 1 -6 5 -4 12 7 289 -273 285 -287 -2 -6 0 -8 4
-4 4 5 146 -131 316 -301 169 -169 309 -308 309 -307 1 0 3 219 3 486 1 267 5
490 9 496 3 6 3 14 0 18 -10 9 -10 577 0 583 4 2 4 10 0 16 -11 17 -10 210 0
225 5 6 6 12 1 12 -12 0 -11 1461 0 1479 5 8 5 12 0 8 -12 -7 -11 1014 1 1032
5 8 4 12 -1 8 -5 -3 -9 164 -9 406 0 357 2 413 15 418 8 4 24 -1 35 -10 18
-15 19 -15 6 2 -12 16 -10 17 32 17 25 0 54 3 64 7 16 6 17 5 3 -13 -14 -18
-14 -18 5 -3 27 22 150 35 171 18 12 -10 13 -9 8 6 -6 15 -2 17 39 14 25 -2
43 -1 40 4 -2 4 11 7 29 7 18 0 48 4 66 9 23 7 32 6 32 -2 0 -9 2 -9 8 0 4 7
32 15 62 17 30 3 55 6 55 6 0 5 181 41 217 43 16 1 28 6 28 11 0 4 13 6 29 4
17 -2 28 -1 25 4 -3 4 3 8 12 8 21 0 298 70 392 99 35 11 72 18 83 16 11 -2
17 0 14 5 -6 10 63 32 76 25 4 -3 9 0 11 6 2 7 18 12 35 13 17 0 29 4 26 9 -2
4 3 8 11 8 19 2 26 4 46 12 59 26 210 75 210 69 0 -4 4 -2 8 4 9 13 92 46 92
36 0 -4 4 -1 9 6 5 8 20 15 34 15 14 1 23 5 21 9 -5 8 66 33 85 29 7 -1 10 2
6 8 -3 6 -1 11 4 11 14 0 192 80 314 141 53 27 97 45 97 41 0 -4 4 -2 8 4 13
20 182 105 194 98 7 -4 8 -3 4 4 -4 6 6 18 24 27 17 9 77 44 133 77 56 34 107
61 114 61 7 0 10 3 8 7 -2 3 17 19 43 34 61 37 216 139 222 146 16 18 68 48
74 43 3 -3 6 -2 6 4 0 17 180 144 192 137 6 -4 8 -3 5 3 -3 5 2 16 11 24 99
82 122 100 122 95 0 -4 15 8 33 26 17 18 55 51 82 73 28 22 56 47 63 57 7 10
19 18 26 18 8 0 17 7 20 16 3 8 11 12 17 8 7 -4 9 -3 6 3 -8 13 29 47 42 38 7
-4 8 0 4 11 -5 13 -3 16 10 11 9 -3 16 -2 14 2 -4 15 213 222 225 215 6 -4 8
-3 4 4 -8 13 92 118 108 114 6 -2 8 -1 4 3 -4 4 -2 13 5 20 7 6 32 35 56 64
33 39 47 49 54 39 7 -10 8 -9 4 3 -3 9 4 27 16 40 12 13 49 56 82 94 33 39 64
75 70 81 5 7 35 44 65 83 30 39 58 71 62 71 5 0 8 5 8 10 0 6 4 16 10 23 5 7
22 28 38 47 15 19 36 48 45 63 10 15 23 25 29 21 7 -4 8 -3 4 4 -4 6 12 38 36
69 23 32 61 86 84 120 23 34 45 59 49 55 5 -4 5 -2 1 5 -4 7 1 21 11 31 10 10
19 24 21 31 1 6 25 46 52 87 28 42 50 77 50 80 0 5 62 107 69 114 4 3 17 28
31 55 13 28 27 52 30 55 4 3 12 20 19 38 8 17 17 32 21 32 3 0 7 6 7 13 1 22
49 97 58 90 4 -5 5 -3 1 4 -3 6 9 42 28 80 42 83 103 215 123 265 8 21 19 35
24 32 5 -3 6 1 3 9 -3 8 7 41 22 73 37 83 51 115 59 144 4 14 16 43 26 65 28
63 116 325 163 490 72 249 85 298 92 342 4 26 11 40 17 36 6 -3 7 -1 3 5 -4 7
3 56 14 109 12 54 24 112 26 128 3 17 11 64 19 105 8 41 19 107 24 145 6 39
13 81 15 95 3 14 5 40 5 58 1 18 4 31 9 29 4 -3 5 15 3 40 -2 25 1 43 5 40 5
-3 9 23 10 56 0 34 4 114 9 177 4 63 8 127 8 143 1 15 3 27 6 27 3 0 6 95 6
210 0 133 4 210 10 210 7 0 7 3 0 8 -5 4 -10 41 -11 82 -1 95 -13 342 -19 395
-3 22 -7 69 -10 105 -3 36 -10 101 -16 145 -6 44 -12 96 -14 115 -8 91 -97
569 -110 589 -2 4 -6 25 -9 46 -11 87 -177 639 -225 750 -5 11 -41 103 -81
205 -40 102 -95 231 -122 288 -27 57 -45 108 -42 114 4 6 3 8 -2 5 -5 -3 -41
56 -79 131 -94 187 -240 439 -354 612 -36 55 -189 276 -203 295 -5 6 -32 41
-61 80 -28 38 -62 81 -74 95 -13 14 -23 28 -23 32 0 3 -6 13 -13 20 -7 7 -51
58 -97 113 -118 140 -127 150 -200 229 -71 78 -364 370 -426 426 -45 40 -244
211 -259 223 -5 4 -21 17 -35 28 -68 57 -279 215 -389 293 -314 219 -693 436
-1031 588 -182 82 -211 95 -271 118 -30 12 -67 28 -84 35 -57 26 -371 133
-540 184 -118 36 -435 115 -520 130 -33 6 -71 13 -85 16 -60 13 -370 64 -420
70 -30 3 -91 10 -135 16 -44 5 -123 12 -175 15 -52 4 -98 9 -102 13 -4 3 -25
92 -47 198 -22 106 -47 220 -56 254 -9 34 -13 69 -10 77 3 9 3 13 -1 9 -4 -4
-18 34 -31 85 -27 108 -35 137 -98 353 -113 387 -270 817 -420 1155 -26 58
-54 121 -62 140 -34 75 -246 501 -299 600 -100 187 -284 497 -357 606 -15 21
-27 44 -27 50 0 7 -4 14 -8 16 -5 2 -41 51 -80 111 -83 123 -126 186 -191 276
-25 35 -45 67 -43 72 1 5 -2 9 -7 9 -4 0 -32 33 -62 73 -29 39 -105 137 -168
216 -120 151 -124 156 -190 234 -23 27 -38 53 -35 59 4 6 2 8 -3 5 -6 -4 -34
21 -64 56 -29 34 -60 69 -68 78 -9 9 -44 47 -78 85 -241 270 -607 626 -868
845 -22 19 -44 39 -50 45 -32 34 -274 227 -480 381 -77 58 -151 114 -165 124
-55 42 -482 325 -587 390 -330 204 -775 438 -1157 609 -109 48 -126 56 -213
91 -44 19 -79 38 -75 43 3 5 1 6 -5 3 -5 -4 -105 30 -222 73 -478 180 -938
315 -1411 416 -168 36 -333 68 -405 78 -23 4 -52 8 -65 11 -37 7 -278 43 -335
50 -27 3 -84 10 -125 15 -140 18 -434 43 -665 56 -101 6 -742 13 -747 9z"/>
<path d="M4596 21802 c-3 -5 1 -9 9 -9 8 0 12 4 9 9 -3 4 -7 8 -9 8 -2 0 -6
-4 -9 -8z"/>
<path d="M4516 21402 c-3 -5 1 -9 9 -9 8 0 12 4 9 9 -3 4 -7 8 -9 8 -2 0 -6
-4 -9 -8z"/>
<path d="M4436 21082 c-3 -5 1 -9 9 -9 8 0 12 4 9 9 -3 4 -7 8 -9 8 -2 0 -6
-4 -9 -8z"/>
<path d="M4276 19727 c3 -10 9 -15 12 -12 3 3 0 11 -7 18 -10 9 -11 8 -5 -6z"/>
<path d="M4635 18621 c-3 -5 -2 -12 3 -15 5 -3 9 1 9 9 0 17 -3 19 -12 6z"/>
<path d="M4656 18398 c3 -5 10 -6 15 -3 13 9 11 12 -6 12 -8 0 -12 -4 -9 -9z"/>
<path d="M4853 18235 c0 -8 4 -12 9 -9 5 3 6 10 3 15 -9 13 -12 11 -12 -6z"/>
<path d="M4970 17761 c0 -6 4 -13 10 -16 6 -3 7 1 4 9 -7 18 -14 21 -14 7z"/>
<path d="M36793 17525 c0 -8 4 -12 9 -9 5 3 6 10 3 15 -9 13 -12 11 -12 -6z"/>
<path d="M36705 17520 c-3 -6 1 -7 9 -4 18 7 21 14 7 14 -6 0 -13 -4 -16 -10z"/>
<path d="M36666 17158 c3 -5 10 -6 15 -3 13 9 11 12 -6 12 -8 0 -12 -4 -9 -9z"/>
<path d="M4676 16922 c-3 -5 1 -9 9 -9 8 0 12 4 9 9 -3 4 -7 8 -9 8 -2 0 -6
-4 -9 -8z"/>
<path d="M5316 16918 c3 -5 10 -6 15 -3 13 9 11 12 -6 12 -8 0 -12 -4 -9 -9z"/>
<path d="M5390 16799 c0 -5 5 -7 10 -4 6 3 10 8 10 11 0 2 -4 4 -10 4 -5 0
-10 -5 -10 -11z"/>
<path d="M4755 16760 c3 -5 8 -10 11 -10 2 0 4 5 4 10 0 6 -5 10 -11 10 -5 0
-7 -4 -4 -10z"/>
<path d="M4755 16691 c-3 -5 -2 -12 3 -15 5 -3 9 1 9 9 0 17 -3 19 -12 6z"/>
<path d="M5470 16679 c0 -5 5 -7 10 -4 6 3 10 8 10 11 0 2 -4 4 -10 4 -5 0
-10 -5 -10 -11z"/>
<path d="M5515 16441 c-3 -5 -2 -12 3 -15 5 -3 9 1 9 9 0 17 -3 19 -12 6z"/>
<path d="M5276 16233 c-6 -14 -5 -15 5 -6 7 7 10 15 7 18 -3 3 -9 -2 -12 -12z"/>
<path d="M5760 16040 c-9 -6 -10 -10 -3 -10 6 0 15 5 18 10 8 12 4 12 -15 0z"/>
<path d="M5990 15679 c0 -5 5 -7 10 -4 6 3 10 8 10 11 0 2 -4 4 -10 4 -5 0
-10 -5 -10 -11z"/>
<path d="M36196 15678 c3 -5 10 -6 15 -3 13 9 11 12 -6 12 -8 0 -12 -4 -9 -9z"/>
<path d="M5950 15639 c0 -5 5 -7 10 -4 6 3 10 8 10 11 0 2 -4 4 -10 4 -5 0
-10 -5 -10 -11z"/>
<path d="M5755 15449 c-4 -6 -5 -12 -2 -15 2 -3 7 2 10 11 7 17 1 20 -8 4z"/>
<path d="M6115 15400 c-3 -5 -1 -10 4 -10 6 0 11 5 11 10 0 6 -2 10 -4 10 -3
0 -8 -4 -11 -10z"/>
<path d="M6070 15206 c0 -2 7 -7 16 -10 8 -3 12 -2 9 4 -6 10 -25 14 -25 6z"/>
<path d="M35596 15153 c-6 -14 -5 -15 5 -6 7 7 10 15 7 18 -3 3 -9 -2 -12 -12z"/>
<path d="M6190 15126 c0 -2 7 -7 16 -10 8 -3 12 -2 9 4 -6 10 -25 14 -25 6z"/>
<path d="M6355 15080 c-3 -5 -1 -10 4 -10 6 0 11 5 11 10 0 6 -2 10 -4 10 -3
0 -8 -4 -11 -10z"/>
<path d="M6173 15035 c0 -8 4 -12 9 -9 5 3 6 10 3 15 -9 13 -12 11 -12 -6z"/>
<path d="M35605 15040 c-3 -6 1 -7 9 -4 18 7 21 14 7 14 -6 0 -13 -4 -16 -10z"/>
<path d="M6239 15018 c-5 -18 -6 -38 -1 -34 7 8 12 36 6 36 -2 0 -4 -1 -5 -2z"/>
<path d="M6624 14922 c4 -3 14 -7 22 -8 9 -1 13 0 10 4 -4 3 -14 7 -22 8 -9 1
-13 0 -10 -4z"/>
<path d="M5910 14841 c0 -6 4 -13 10 -16 6 -3 7 1 4 9 -7 18 -14 21 -14 7z"/>
<path d="M35190 14836 c0 -2 8 -10 18 -17 15 -13 16 -12 3 4 -13 16 -21 21
-21 13z"/>
<path d="M35367 14719 c7 -7 15 -10 18 -7 3 3 -2 9 -12 12 -14 6 -15 5 -6 -5z"/>
<path d="M34993 14515 c0 -8 4 -12 9 -9 5 3 6 10 3 15 -9 13 -12 11 -12 -6z"/>
<path d="M5833 14395 c0 -8 4 -12 9 -9 5 3 6 10 3 15 -9 13 -12 11 -12 -6z"/>
<path d="M34830 14360 c0 -5 5 -10 11 -10 5 0 7 5 4 10 -3 6 -8 10 -11 10 -2
0 -4 -4 -4 -10z"/>
<path d="M34985 14239 c-3 -4 2 -6 10 -5 21 3 28 13 10 13 -9 0 -18 -4 -20 -8z"/>
<path d="M34756 14198 c3 -5 10 -6 15 -3 13 9 11 12 -6 12 -8 0 -12 -4 -9 -9z"/>
<path d="M34554 14166 c1 -8 5 -18 8 -22 4 -3 5 1 4 10 -1 8 -5 18 -8 22 -4 3
-5 -1 -4 -10z"/>
<path d="M34625 14160 c-3 -6 1 -7 9 -4 18 7 21 14 7 14 -6 0 -13 -4 -16 -10z"/>
<path d="M7389 14083 c-13 -16 -12 -17 4 -4 9 7 17 15 17 17 0 8 -8 3 -21 -13z"/>
<path d="M7279 14073 c-13 -16 -12 -17 4 -4 16 13 21 21 13 21 -2 0 -10 -8
-17 -17z"/>
<path d="M34906 14082 c-3 -5 1 -9 9 -9 8 0 12 4 9 9 -3 4 -7 8 -9 8 -2 0 -6
-4 -9 -8z"/>
<path d="M34590 14046 c0 -2 7 -7 16 -10 8 -3 12 -2 9 4 -6 10 -25 14 -25 6z"/>
<path d="M7169 13923 c-13 -16 -12 -17 4 -4 16 13 21 21 13 21 -2 0 -10 -8
-17 -17z"/>
<path d="M7436 13882 c-3 -5 1 -9 9 -9 8 0 12 4 9 9 -3 4 -7 8 -9 8 -2 0 -6
-4 -9 -8z"/>
<path d="M7835 13881 c-3 -5 -2 -12 3 -15 5 -3 9 1 9 9 0 17 -3 19 -12 6z"/>
<path d="M35036 13882 c-3 -5 1 -9 9 -9 8 0 12 4 9 9 -3 4 -7 8 -9 8 -2 0 -6
-4 -9 -8z"/>
<path d="M8156 13847 c3 -10 9 -15 12 -12 3 3 0 11 -7 18 -10 9 -11 8 -5 -6z"/>
<path d="M7710 13776 c0 -2 8 -10 18 -17 15 -13 16 -12 3 4 -13 16 -21 21 -21
13z"/>
<path d="M34114 13769 c-3 -6 -2 -15 3 -20 5 -5 9 -1 9 11 0 23 -2 24 -12 9z"/>
<path d="M7990 13761 c0 -6 4 -13 10 -16 6 -3 7 1 4 9 -7 18 -14 21 -14 7z"/>
<path d="M7464 13682 c4 -3 14 -7 22 -8 9 -1 13 0 10 4 -4 3 -14 7 -22 8 -9 1
-13 0 -10 -4z"/>
<path d="M7909 13643 c-13 -16 -12 -17 4 -4 9 7 17 15 17 17 0 8 -8 3 -21 -13z"/>
<path d="M7505 13620 c-3 -6 1 -7 9 -4 18 7 21 14 7 14 -6 0 -13 -4 -16 -10z"/>
<path d="M8556 13438 c3 -5 10 -6 15 -3 13 9 11 12 -6 12 -8 0 -12 -4 -9 -9z"/>
<path d="M8225 13399 c-3 -4 2 -6 10 -5 21 3 28 13 10 13 -9 0 -18 -4 -20 -8z"/>
<path d="M8516 13353 c-6 -14 -5 -15 5 -6 7 7 10 15 7 18 -3 3 -9 -2 -12 -12z"/>
<path d="M9026 13358 c3 -5 10 -6 15 -3 13 9 11 12 -6 12 -8 0 -12 -4 -9 -9z"/>
<path d="M33876 13318 c3 -5 10 -6 15 -3 13 9 11 12 -6 12 -8 0 -12 -4 -9 -9z"/>
<path d="M8235 13280 c-3 -5 -1 -10 4 -10 6 0 11 5 11 10 0 6 -2 10 -4 10 -3
0 -8 -4 -11 -10z"/>
<path d="M33706 13242 c-3 -5 1 -9 9 -9 8 0 12 4 9 9 -3 4 -7 8 -9 8 -2 0 -6
-4 -9 -8z"/>
<path d="M33553 13205 c0 -8 4 -15 9 -15 4 0 8 4 8 9 0 6 -4 12 -8 15 -5 3 -9
-1 -9 -9z"/>
<path d="M7995 13171 c-3 -5 -2 -12 3 -15 5 -3 9 1 9 9 0 17 -3 19 -12 6z"/>
<path d="M8276 13158 c3 -5 10 -6 15 -3 13 9 11 12 -6 12 -8 0 -12 -4 -9 -9z"/>
<path d="M33420 13166 c0 -2 8 -10 18 -17 15 -13 16 -12 3 4 -13 16 -21 21
-21 13z"/>
<path d="M9153 13125 c0 -8 4 -12 9 -9 5 3 6 10 3 15 -9 13 -12 11 -12 -6z"/>
<path d="M32670 13126 c0 -2 7 -7 16 -10 8 -3 12 -2 9 4 -6 10 -25 14 -25 6z"/>
<path d="M32995 13120 c3 -5 8 -10 11 -10 2 0 4 5 4 10 0 6 -5 10 -11 10 -5 0
-7 -4 -4 -10z"/>
<path d="M8786 13002 c-2 -4 4 -8 14 -8 10 0 16 4 14 8 -3 4 -9 8 -14 8 -5 0
-11 -4 -14 -8z"/>
<path d="M32476 12962 c-3 -5 1 -9 9 -9 8 0 12 4 9 9 -3 4 -7 8 -9 8 -2 0 -6
-4 -9 -8z"/>
<path d="M8755 12920 c3 -5 8 -10 11 -10 2 0 4 5 4 10 0 6 -5 10 -11 10 -5 0
-7 -4 -4 -10z"/>
<path d="M32829 12883 c-13 -16 -12 -17 4 -4 9 7 17 15 17 17 0 8 -8 3 -21
-13z"/>
<path d="M33106 12878 c3 -5 10 -6 15 -3 13 9 11 12 -6 12 -8 0 -12 -4 -9 -9z"/>
<path d="M33510 12856 c0 -2 8 -10 18 -17 15 -13 16 -12 3 4 -13 16 -21 21
-21 13z"/>
<path d="M33150 12839 c0 -5 5 -7 10 -4 6 3 10 8 10 11 0 2 -4 4 -10 4 -5 0
-10 -5 -10 -11z"/>
<path d="M33236 12838 c3 -5 10 -6 15 -3 13 9 11 12 -6 12 -8 0 -12 -4 -9 -9z"/>
<path d="M34266 12842 c-3 -5 1 -9 9 -9 8 0 12 4 9 9 -3 4 -7 8 -9 8 -2 0 -6
-4 -9 -8z"/>
<path d="M10160 12800 c-9 -6 -10 -10 -3 -10 6 0 15 5 18 10 8 12 4 12 -15 0z"/>
<path d="M10300 12806 c0 -2 8 -10 18 -17 15 -13 16 -12 3 4 -13 16 -21 21
-21 13z"/>
<path d="M32555 12800 c-3 -5 -1 -10 4 -10 6 0 11 5 11 10 0 6 -2 10 -4 10 -3
0 -8 -4 -11 -10z"/>
<path d="M32955 12760 c3 -5 8 -10 11 -10 2 0 4 5 4 10 0 6 -5 10 -11 10 -5 0
-7 -4 -4 -10z"/>
<path d="M33030 12761 c0 -6 4 -13 10 -16 6 -3 7 1 4 9 -7 18 -14 21 -14 7z"/>
<path d="M32674 12729 c-3 -6 -2 -15 3 -20 5 -5 9 -1 9 11 0 23 -2 24 -12 9z"/>
<path d="M10500 12646 c0 -2 8 -10 18 -17 15 -13 16 -12 3 4 -13 16 -21 21
-21 13z"/>
<path d="M32635 12611 c-3 -5 -2 -12 3 -15 5 -3 9 1 9 9 0 17 -3 19 -12 6z"/>
<path d="M12053 12565 c0 -8 4 -12 9 -9 5 3 6 10 3 15 -9 13 -12 11 -12 -6z"/>
<path d="M32595 12571 c-3 -5 -2 -12 3 -15 5 -3 9 1 9 9 0 17 -3 19 -12 6z"/>
<path d="M11759 12553 c-13 -16 -12 -17 4 -4 16 13 21 21 13 21 -2 0 -10 -8
-17 -17z"/>
<path d="M11995 12561 c-3 -5 -2 -12 3 -15 5 -3 9 1 9 9 0 17 -3 19 -12 6z"/>
<path d="M12756 12558 c3 -5 10 -6 15 -3 13 9 11 12 -6 12 -8 0 -12 -4 -9 -9z"/>
<path d="M31350 12560 c0 -5 5 -10 10 -10 6 0 10 5 10 10 0 6 -4 10 -10 10 -5
0 -10 -4 -10 -10z"/>
<path d="M9555 12520 c-3 -5 -1 -10 4 -10 6 0 11 5 11 10 0 6 -2 10 -4 10 -3
0 -8 -4 -11 -10z"/>
<path d="M9515 12481 c-3 -5 -2 -12 3 -15 5 -3 9 1 9 9 0 17 -3 19 -12 6z"/>
<path d="M13839 12473 c-13 -16 -12 -17 4 -4 9 7 17 15 17 17 0 8 -8 3 -21
-13z"/>
<path d="M23520 12480 c-9 -6 -10 -10 -3 -10 6 0 15 5 18 10 8 12 4 12 -15 0z"/>
<path d="M31953 12475 c0 -8 4 -12 9 -9 5 3 6 10 3 15 -9 13 -12 11 -12 -6z"/>
<path d="M10540 12446 c0 -2 8 -10 18 -17 15 -13 16 -12 3 4 -13 16 -21 21
-21 13z"/>
<path d="M11119 12433 c-13 -16 -12 -17 4 -4 16 13 21 21 13 21 -2 0 -10 -8
-17 -17z"/>
<path d="M32795 12429 c-4 -6 -5 -12 -2 -15 2 -3 7 2 10 11 7 17 1 20 -8 4z"/>
<path d="M11675 12400 c3 -5 8 -10 11 -10 2 0 4 5 4 10 0 6 -5 10 -11 10 -5 0
-7 -4 -4 -10z"/>
<path d="M12460 12406 c0 -2 8 -10 18 -17 15 -13 16 -12 3 4 -13 16 -21 21
-21 13z"/>
<path d="M9349 12363 c-13 -16 -12 -17 4 -4 16 13 21 21 13 21 -2 0 -10 -8
-17 -17z"/>
<path d="M32233 12365 c0 -8 4 -12 9 -9 5 3 6 10 3 15 -9 13 -12 11 -12 -6z"/>
<path d="M32353 12355 c0 -8 4 -12 9 -9 5 3 6 10 3 15 -9 13 -12 11 -12 -6z"/>
<path d="M32536 12327 c3 -10 9 -15 12 -12 3 3 0 11 -7 18 -10 9 -11 8 -5 -6z"/>
<path d="M11586 12318 c3 -5 10 -6 15 -3 13 9 11 12 -6 12 -8 0 -12 -4 -9 -9z"/>
<path d="M14635 12320 c-3 -5 -1 -10 4 -10 6 0 11 5 11 10 0 6 -2 10 -4 10 -3
0 -8 -4 -11 -10z"/>
<path d="M14980 12326 c0 -2 8 -10 18 -17 15 -13 16 -12 3 4 -13 16 -21 21
-21 13z"/>
<path d="M16555 12320 c-3 -5 -1 -10 4 -10 6 0 11 5 11 10 0 6 -2 10 -4 10 -3
0 -8 -4 -11 -10z"/>
<path d="M16900 12326 c0 -2 8 -10 18 -17 15 -13 16 -12 3 4 -13 16 -21 21
-21 13z"/>
<path d="M21035 12320 c-3 -5 -1 -10 4 -10 6 0 11 5 11 10 0 6 -2 10 -4 10 -3
0 -8 -4 -11 -10z"/>
<path d="M21380 12326 c0 -2 8 -10 18 -17 15 -13 16 -12 3 4 -13 16 -21 21
-21 13z"/>
<path d="M22955 12320 c-3 -5 -1 -10 4 -10 6 0 11 5 11 10 0 6 -2 10 -4 10 -3
0 -8 -4 -11 -10z"/>
<path d="M31180 12326 c0 -2 8 -10 18 -17 15 -13 16 -12 3 4 -13 16 -21 21
-21 13z"/>
<path d="M13150 12256 c0 -2 8 -10 18 -17 15 -13 16 -12 3 4 -13 16 -21 21
-21 13z"/>
<path d="M10675 12241 c-3 -5 -2 -12 3 -15 5 -3 9 1 9 9 0 17 -3 19 -12 6z"/>
<path d="M30630 12239 c0 -5 5 -7 10 -4 6 3 10 8 10 11 0 2 -4 4 -10 4 -5 0
-10 -5 -10 -11z"/>
<path d="M31239 12233 c-13 -16 -12 -17 4 -4 9 7 17 15 17 17 0 8 -8 3 -21
-13z"/>
<path d="M10266 12198 c3 -5 10 -6 15 -3 13 9 11 12 -6 12 -8 0 -12 -4 -9 -9z"/>
<path d="M10627 12199 c7 -7 15 -10 18 -7 3 3 -2 9 -12 12 -14 6 -15 5 -6 -5z"/>
<path d="M17273 12165 c0 -8 4 -12 9 -9 5 3 6 10 3 15 -9 13 -12 11 -12 -6z"/>
<path d="M21754 12166 c1 -8 5 -18 8 -22 4 -3 5 1 4 10 -1 8 -5 18 -8 22 -4 3
-5 -1 -4 -10z"/>
<path d="M12400 12160 c-9 -6 -10 -10 -3 -10 6 0 15 5 18 10 8 12 4 12 -15 0z"/>
<path d="M16236 12158 c3 -5 10 -6 15 -3 13 9 11 12 -6 12 -8 0 -12 -4 -9 -9z"/>
<path d="M20026 12158 c3 -5 10 -6 15 -3 13 9 11 12 -6 12 -8 0 -12 -4 -9 -9z"/>
<path d="M10590 12119 c0 -5 5 -7 10 -4 6 3 10 8 10 11 0 2 -4 4 -10 4 -5 0
-10 -5 -10 -11z"/>
<path d="M31626 12118 c3 -5 10 -6 15 -3 13 9 11 12 -6 12 -8 0 -12 -4 -9 -9z"/>
<path d="M10990 12096 c0 -2 8 -10 18 -17 15 -13 16 -12 3 4 -13 16 -21 21
-21 13z"/>
<path d="M17470 12096 c0 -2 8 -10 18 -17 15 -13 16 -12 3 4 -13 16 -21 21
-21 13z"/>
<path d="M17709 12083 c-13 -16 -12 -17 4 -4 9 7 17 15 17 17 0 8 -8 3 -21
-13z"/>
<path d="M22349 12083 c-13 -16 -12 -17 4 -4 9 7 17 15 17 17 0 8 -8 3 -21
-13z"/>
<path d="M17060 12086 c0 -2 8 -10 18 -17 15 -13 16 -12 3 4 -13 16 -21 21
-21 13z"/>
<path d="M31836 12058 c3 -5 10 -6 15 -3 13 9 11 12 -6 12 -8 0 -12 -4 -9 -9z"/>
<path d="M23836 12038 c3 -5 10 -6 15 -3 13 9 11 12 -6 12 -8 0 -12 -4 -9 -9z"/>
<path d="M12340 12006 c0 -2 8 -10 18 -17 15 -13 16 -12 3 4 -13 16 -21 21
-21 13z"/>
<path d="M12796 12002 c-3 -5 1 -9 9 -9 8 0 12 4 9 9 -3 4 -7 8 -9 8 -2 0 -6
-4 -9 -8z"/>
<path d="M15900 12006 c0 -2 8 -10 18 -17 15 -13 16 -12 3 4 -13 16 -21 21
-21 13z"/>
<path d="M30820 12006 c0 -2 8 -10 18 -17 15 -13 16 -12 3 4 -13 16 -21 21
-21 13z"/>
<path d="M31385 12000 c-3 -6 1 -7 9 -4 18 7 21 14 7 14 -6 0 -13 -4 -16 -10z"/>
<path d="M12113 11965 c0 -8 4 -12 9 -9 5 3 6 10 3 15 -9 13 -12 11 -12 -6z"/>
<path d="M11385 11960 c-3 -6 1 -7 9 -4 18 7 21 14 7 14 -6 0 -13 -4 -16 -10z"/>
<path d="M11830 11961 c0 -6 4 -13 10 -16 6 -3 7 1 4 9 -7 18 -14 21 -14 7z"/>
<path d="M17590 11956 c7 -7 13 -7 20 0 6 6 3 10 -10 10 -13 0 -16 -4 -10 -10z"/>
<path d="M22144 11962 c4 -3 14 -7 22 -8 9 -1 13 0 10 4 -4 3 -14 7 -22 8 -9
1 -13 0 -10 -4z"/>
<path d="M22559 11953 c-13 -16 -12 -17 4 -4 16 13 21 21 13 21 -2 0 -10 -8
-17 -17z"/>
<path d="M31235 11961 c-3 -5 -2 -12 3 -15 5 -3 9 1 9 9 0 17 -3 19 -12 6z"/>
<path d="M12355 11931 c-3 -5 -2 -12 3 -15 5 -3 9 1 9 9 0 17 -3 19 -12 6z"/>
<path d="M31029 11923 c-13 -16 -12 -17 4 -4 9 7 17 15 17 17 0 8 -8 3 -21
-13z"/>
<path d="M12150 11920 c0 -5 5 -10 10 -10 6 0 10 5 10 10 0 6 -4 10 -10 10 -5
0 -10 -4 -10 -10z"/>
<path d="M13220 11926 c0 -2 8 -10 18 -17 15 -13 16 -12 3 4 -13 16 -21 21
-21 13z"/>
<path d="M15910 11919 c0 -5 5 -7 10 -4 6 3 10 8 10 11 0 2 -4 4 -10 4 -5 0
-10 -5 -10 -11z"/>
<path d="M12513 11885 c0 -8 4 -12 9 -9 5 3 6 10 3 15 -9 13 -12 11 -12 -6z"/>
<path d="M12673 11885 c0 -8 4 -12 9 -9 5 3 6 10 3 15 -9 13 -12 11 -12 -6z"/>
<path d="M12755 11891 c-3 -5 -2 -12 3 -15 5 -3 9 1 9 9 0 17 -3 19 -12 6z"/>
<path d="M13275 11891 c-3 -5 -2 -12 3 -15 5 -3 9 1 9 9 0 17 -3 19 -12 6z"/>
<path d="M15873 11885 c0 -8 4 -12 9 -9 5 3 6 10 3 15 -9 13 -12 11 -12 -6z"/>
<path d="M15955 11891 c-3 -5 -2 -12 3 -15 5 -3 9 1 9 9 0 17 -3 19 -12 6z"/>
<path d="M17673 11885 c0 -8 4 -12 9 -9 5 3 6 10 3 15 -9 13 -12 11 -12 -6z"/>
<path d="M18193 11885 c0 -8 4 -12 9 -9 5 3 6 10 3 15 -9 13 -12 11 -12 -6z"/>
<path d="M19473 11885 c0 -8 4 -12 9 -9 5 3 6 10 3 15 -9 13 -12 11 -12 -6z"/>
<path d="M22633 11885 c0 -8 4 -12 9 -9 5 3 6 10 3 15 -9 13 -12 11 -12 -6z"/>
<path d="M24629 11883 c-13 -16 -12 -17 4 -4 9 7 17 15 17 17 0 8 -8 3 -21
-13z"/>
<path d="M12190 11886 c0 -2 7 -7 16 -10 8 -3 12 -2 9 4 -6 10 -25 14 -25 6z"/>
<path d="M13066 11878 c3 -5 10 -6 15 -3 13 9 11 12 -6 12 -8 0 -12 -4 -9 -9z"/>
<path d="M13466 11878 c3 -5 10 -6 15 -3 13 9 11 12 -6 12 -8 0 -12 -4 -9 -9z"/>
<path d="M15230 11880 c0 -5 5 -10 11 -10 5 0 7 5 4 10 -3 6 -8 10 -11 10 -2
0 -4 -4 -4 -10z"/>
<path d="M17590 11882 c0 -5 7 -9 15 -9 8 0 12 4 9 9 -3 4 -9 8 -15 8 -5 0 -9
-4 -9 -8z"/>
<path d="M18270 11879 c0 -5 5 -7 10 -4 6 3 10 8 10 11 0 2 -4 4 -10 4 -5 0
-10 -5 -10 -11z"/>
<path d="M19550 11879 c0 -5 5 -7 10 -4 6 3 10 8 10 11 0 2 -4 4 -10 4 -5 0
-10 -5 -10 -11z"/>
<path d="M20030 11879 c0 -5 5 -7 10 -4 6 3 10 8 10 11 0 2 -4 4 -10 4 -5 0
-10 -5 -10 -11z"/>
<path d="M21946 11878 c3 -5 10 -6 15 -3 13 9 11 12 -6 12 -8 0 -12 -4 -9 -9z"/>
<path d="M22550 11882 c0 -5 7 -9 15 -9 8 0 12 4 9 9 -3 4 -9 8 -15 8 -5 0 -9
-4 -9 -8z"/>
<path d="M24115 11880 c3 -5 8 -10 11 -10 2 0 4 5 4 10 0 6 -5 10 -11 10 -5 0
-7 -4 -4 -10z"/>
<path d="M30986 11878 c3 -5 10 -6 15 -3 13 9 11 12 -6 12 -8 0 -12 -4 -9 -9z"/>
<path d="M31076 11878 c3 -5 10 -6 15 -3 13 9 11 12 -6 12 -8 0 -12 -4 -9 -9z"/>
<path d="M12710 11846 c0 -2 7 -7 16 -10 8 -3 12 -2 9 4 -6 10 -25 14 -25 6z"/>
<path d="M14355 11840 c3 -5 8 -10 11 -10 2 0 4 5 4 10 0 6 -5 10 -11 10 -5 0
-7 -4 -4 -10z"/>
<path d="M15179 11833 c-13 -16 -12 -17 4 -4 9 7 17 15 17 17 0 8 -8 3 -21
-13z"/>
<path d="M16079 11833 c-13 -16 -12 -17 4 -4 9 7 17 15 17 17 0 8 -8 3 -21
-13z"/>
<path d="M20736 11833 c-6 -14 -5 -15 5 -6 7 7 10 15 7 18 -3 3 -9 -2 -12 -12z"/>
<path d="M21153 11795 c0 -8 4 -12 9 -9 5 3 6 10 3 15 -9 13 -12 11 -12 -6z"/>
<path d="M24310 11801 c0 -6 4 -13 10 -16 6 -3 7 1 4 9 -7 18 -14 21 -14 7z"/>
<path d="M24916 11767 c3 -10 9 -15 12 -12 3 3 0 11 -7 18 -10 9 -11 8 -5 -6z"/>
<path d="M25150 11776 c0 -2 8 -10 18 -17 15 -13 16 -12 3 4 -13 16 -21 21
-21 13z"/>
<path d="M11755 11760 c-3 -5 -1 -10 4 -10 6 0 11 5 11 10 0 6 -2 10 -4 10 -3
0 -8 -4 -11 -10z"/>
<path d="M24425 11759 c-3 -4 2 -6 10 -5 21 3 28 13 10 13 -9 0 -18 -4 -20 -8z"/>
<path d="M14556 11738 c3 -5 10 -6 15 -3 13 9 11 12 -6 12 -8 0 -12 -4 -9 -9z"/>
<path d="M25260 11726 c0 -2 8 -10 18 -17 15 -13 16 -12 3 4 -13 16 -21 21
-21 13z"/>
<path d="M31035 11709 c-4 -6 -5 -12 -2 -15 2 -3 7 2 10 11 7 17 1 20 -8 4z"/>
<path d="M30880 11686 c0 -2 8 -10 18 -17 15 -13 16 -12 3 4 -13 16 -21 21
-21 13z"/>
<path d="M22076 11667 c3 -10 9 -15 12 -12 3 3 0 11 -7 18 -10 9 -11 8 -5 -6z"/>
<path d="M12790 11660 c0 -5 5 -10 11 -10 5 0 7 5 4 10 -3 6 -8 10 -11 10 -2
0 -4 -4 -4 -10z"/>
<path d="M18710 11659 c0 -5 5 -7 10 -4 6 3 10 8 10 11 0 2 -4 4 -10 4 -5 0
-10 -5 -10 -11z"/>
<path d="M23195 11660 c3 -5 8 -10 11 -10 2 0 4 5 4 10 0 6 -5 10 -11 10 -5 0
-7 -4 -4 -10z"/>
<path d="M17269 11643 c-13 -16 -12 -17 4 -4 16 13 21 21 13 21 -2 0 -10 -8
-17 -17z"/>
<path d="M13279 11633 c-13 -16 -12 -17 4 -4 16 13 21 21 13 21 -2 0 -10 -8
-17 -17z"/>
<path d="M14460 11646 c0 -2 8 -10 18 -17 15 -13 16 -12 3 4 -13 16 -21 21
-21 13z"/>
<path d="M17100 11646 c0 -2 8 -10 18 -17 15 -13 16 -12 3 4 -13 16 -21 21
-21 13z"/>
<path d="M19100 11646 c0 -2 8 -10 18 -17 15 -13 16 -12 3 4 -13 16 -21 21
-21 13z"/>
<path d="M30586 11642 c-3 -5 1 -9 9 -9 8 0 12 4 9 9 -3 4 -7 8 -9 8 -2 0 -6
-4 -9 -8z"/>
<path d="M15670 11621 c0 -6 4 -13 10 -16 6 -3 7 1 4 9 -7 18 -14 21 -14 7z"/>
<path d="M15995 11620 c-3 -5 -1 -10 4 -10 6 0 11 5 11 10 0 6 -2 10 -4 10 -3
0 -8 -4 -11 -10z"/>
<path d="M18236 11613 c-6 -14 -5 -15 5 -6 7 7 10 15 7 18 -3 3 -9 -2 -12 -12z"/>
<path d="M19516 11613 c-6 -14 -5 -15 5 -6 7 7 10 15 7 18 -3 3 -9 -2 -12 -12z"/>
<path d="M21590 11621 c0 -6 4 -13 10 -16 6 -3 7 1 4 9 -7 18 -14 21 -14 7z"/>
<path d="M23675 11601 c-3 -5 -2 -12 3 -15 5 -3 9 1 9 9 0 17 -3 19 -12 6z"/>
<path d="M25676 11593 c-6 -14 -5 -15 5 -6 7 7 10 15 7 18 -3 3 -9 -2 -12 -12z"/>
<path d="M25034 11566 c1 -8 5 -18 8 -22 4 -3 5 1 4 10 -1 8 -5 18 -8 22 -4 3
-5 -1 -4 -10z"/>
<path d="M30586 11562 c-3 -5 1 -9 9 -9 8 0 12 4 9 9 -3 4 -7 8 -9 8 -2 0 -6
-4 -9 -8z"/>
<path d="M25090 11536 c0 -2 8 -10 18 -17 15 -13 16 -12 3 4 -13 16 -21 21
-21 13z"/>
<path d="M30615 11521 c-3 -5 -2 -12 3 -15 5 -3 9 1 9 9 0 17 -3 19 -12 6z"/>
<path d="M30715 11460 c3 -5 8 -10 11 -10 2 0 4 5 4 10 0 6 -5 10 -11 10 -5 0
-7 -4 -4 -10z"/>
<path d="M25750 11416 c0 -2 8 -10 18 -17 15 -13 16 -12 3 4 -13 16 -21 21
-21 13z"/>
<path d="M24239 11353 c-13 -16 -12 -17 4 -4 9 7 17 15 17 17 0 8 -8 3 -21
-13z"/>
<path d="M30573 11355 c0 -8 4 -12 9 -9 5 3 6 10 3 15 -9 13 -12 11 -12 -6z"/>
<path d="M30715 11351 c-3 -5 -2 -12 3 -15 5 -3 9 1 9 9 0 17 -3 19 -12 6z"/>
<path d="M25875 11251 c-3 -5 -2 -12 3 -15 5 -3 9 1 9 9 0 17 -3 19 -12 6z"/>
<path d="M18750 11239 c0 -5 5 -7 10 -4 6 3 10 8 10 11 0 2 -4 4 -10 4 -5 0
-10 -5 -10 -11z"/>
<path d="M13595 11209 c-4 -6 -5 -12 -2 -15 2 -3 7 2 10 11 7 17 1 20 -8 4z"/>
<path d="M25815 11040 c-3 -5 -1 -10 4 -10 6 0 11 5 11 10 0 6 -2 10 -4 10 -3
0 -8 -4 -11 -10z"/>
<path d="M25076 10998 c3 -5 10 -6 15 -3 13 9 11 12 -6 12 -8 0 -12 -4 -9 -9z"/>
<path d="M30836 10958 c3 -5 10 -6 15 -3 13 9 11 12 -6 12 -8 0 -12 -4 -9 -9z"/>
<path d="M26080 10886 c0 -2 8 -10 18 -17 15 -13 16 -12 3 4 -13 16 -21 21
-21 13z"/>
<path d="M25310 10846 c0 -2 7 -7 16 -10 8 -3 12 -2 9 4 -6 10 -25 14 -25 6z"/>
<path d="M26550 10776 c0 -2 8 -10 18 -17 15 -13 16 -12 3 4 -13 16 -21 21
-21 13z"/>
<path d="M22590 10736 c0 -2 8 -10 18 -17 15 -13 16 -12 3 4 -13 16 -21 21
-21 13z"/>
<path d="M26635 10689 c-4 -6 -5 -12 -2 -15 2 -3 7 2 10 11 7 17 1 20 -8 4z"/>
<path d="M26950 10576 c0 -2 8 -10 18 -17 15 -13 16 -12 3 4 -13 16 -21 21
-21 13z"/>
<path d="M26834 10486 c1 -8 5 -18 8 -22 4 -3 5 1 4 10 -1 8 -5 18 -8 22 -4 3
-5 -1 -4 -10z"/>
<path d="M26909 10483 c-13 -16 -12 -17 4 -4 9 7 17 15 17 17 0 8 -8 3 -21
-13z"/>
<path d="M26873 10367 c0 -8 6 -14 14 -14 9 0 10 4 2 14 -6 7 -12 13 -14 13
-1 0 -2 -6 -2 -13z"/>
<path d="M27000 10320 c-9 -6 -10 -10 -3 -10 6 0 15 5 18 10 8 12 4 12 -15 0z"/>
<path d="M26906 10242 c-3 -5 1 -9 9 -9 8 0 15 4 15 9 0 4 -4 8 -9 8 -6 0 -12
-4 -15 -8z"/>
<path d="M27190 10236 c7 -7 13 -7 20 0 6 6 3 10 -10 10 -13 0 -16 -4 -10 -10z"/>
<path d="M27155 10051 c-3 -5 -2 -12 3 -15 5 -3 9 1 9 9 0 17 -3 19 -12 6z"/>
<path d="M26593 9925 c0 -8 4 -12 9 -9 5 3 6 10 3 15 -9 13 -12 11 -12 -6z"/>
<path d="M27639 9753 c-13 -16 -12 -17 4 -4 16 13 21 21 13 21 -2 0 -10 -8
-17 -17z"/>
<path d="M26596 9718 c3 -5 10 -6 15 -3 13 9 11 12 -6 12 -8 0 -12 -4 -9 -9z"/>
<path d="M27750 9600 c0 -5 5 -10 11 -10 5 0 7 5 4 10 -3 6 -8 10 -11 10 -2 0
-4 -4 -4 -10z"/>
<path d="M27635 9571 c-3 -5 -2 -12 3 -15 5 -3 9 1 9 9 0 17 -3 19 -12 6z"/>
<path d="M26750 9566 c0 -2 7 -7 16 -10 8 -3 12 -2 9 4 -6 10 -25 14 -25 6z"/>
<path d="M27873 9325 c0 -8 4 -12 9 -9 5 3 6 10 3 15 -9 13 -12 11 -12 -6z"/>
<path d="M28026 9158 c3 -5 10 -6 15 -3 13 9 11 12 -6 12 -8 0 -12 -4 -9 -9z"/>
<path d="M28300 9086 c0 -2 8 -10 18 -17 15 -13 16 -12 3 4 -13 16 -21 21 -21
13z"/>
<path d="M28356 8833 c-6 -14 -5 -15 5 -6 7 7 10 15 7 18 -3 3 -9 -2 -12 -12z"/>
<path d="M28679 8793 c-13 -16 -12 -17 4 -4 9 7 17 15 17 17 0 8 -8 3 -21 -13z"/>
<path d="M28553 8765 c0 -8 4 -12 9 -9 5 3 6 10 3 15 -9 13 -12 11 -12 -6z"/>
<path d="M28529 8643 c-13 -16 -12 -17 4 -4 16 13 21 21 13 21 -2 0 -10 -8
-17 -17z"/>
<path d="M29029 8443 c-13 -16 -12 -17 4 -4 9 7 17 15 17 17 0 8 -8 3 -21 -13z"/>
<path d="M29475 8200 c3 -5 8 -10 11 -10 2 0 4 5 4 10 0 6 -5 10 -11 10 -5 0
-7 -4 -4 -10z"/>
<path d="M29555 8131 c-3 -5 -2 -12 3 -15 5 -3 9 1 9 9 0 17 -3 19 -12 6z"/>
<path d="M29235 8121 c-3 -5 -2 -12 3 -15 5 -3 9 1 9 9 0 17 -3 19 -12 6z"/>
<path d="M29636 8078 c3 -5 10 -6 15 -3 13 9 11 12 -6 12 -8 0 -12 -4 -9 -9z"/>
<path d="M28796 8053 c-6 -14 -5 -15 5 -6 7 7 10 15 7 18 -3 3 -9 -2 -12 -12z"/>
<path d="M29439 8058 c-5 -18 -6 -38 -1 -34 7 8 12 36 6 36 -2 0 -4 -1 -5 -2z"/>
<path d="M28595 8001 c-3 -5 -2 -12 3 -15 5 -3 9 1 9 9 0 17 -3 19 -12 6z"/>
<path d="M29544 7922 c4 -3 14 -7 22 -8 9 -1 13 0 10 4 -4 3 -14 7 -22 8 -9 1
-13 0 -10 -4z"/>
<path d="M29246 7678 c3 -5 10 -6 15 -3 13 9 11 12 -6 12 -8 0 -12 -4 -9 -9z"/>
<path d="M29735 7680 c3 -5 8 -10 11 -10 2 0 4 5 4 10 0 6 -5 10 -11 10 -5 0
-7 -4 -4 -10z"/>
<path d="M30396 7247 c3 -10 9 -15 12 -12 3 3 0 11 -7 18 -10 9 -11 8 -5 -6z"/>
</g>
</svg>
