<?xml version="1.0" encoding="utf-8" ?>
<!-- Generator: Assembly 1.0 - http://assemblyapp.co -->
<svg version="1.1" xmlns="http://www.w3.org/2000/svg" xmlns:xlink="http://www.w3.org/1999/xlink" width="300" height="300" viewBox="0 0 300 300">
	<g id="widget" transform="matrix(1,0,0,1,150,150)">
		<path d="M72.824,57.6902 C98.1555,55.8198 118.1,34.7 118.1,8.88748 C118.1,-17.0591 97.9479,-38.264 72.4291,-39.9428 C66.1722,-73.5657 36.7071,-98.9901 1.25984,-98.9901 C-27.1564,-98.9901 -51.7282,-82.6514 -63.5813,-58.8483 C-93.3381,-56.1115 -116.61,-31.1116 -116.61,-0.636005 C-116.61,31.6713 -90.4566,57.8249 -58.1493,57.8249 C-56.7418,57.8249 -55.3461,57.7752 -53.9637,57.6776 C-52.8329,57.7751 -51.6889,57.8249 -50.5337,57.8249 L34.9372,57.8249 L72.824,95.7118 L72.824,57.6902 Z" fill="#1b9af8" fill-opacity="1" />
		<path d="M72.824,57.6902 C98.1555,55.8198 118.1,34.7 118.1,8.88748 C118.1,-17.0591 97.9479,-38.264 72.4291,-39.9428 C66.1722,-73.5657 36.7071,-98.9901 1.25984,-98.9901 C-27.1564,-98.9901 -51.7282,-82.6514 -63.5813,-58.8483 C-93.3381,-56.1115 -116.61,-31.1116 -116.61,-0.636005 C-116.61,31.6713 -90.4566,57.8249 -58.1493,57.8249 C-56.7418,57.8249 -55.3461,57.7752 -53.9637,57.6776 C-52.8329,57.7751 -51.6889,57.8249 -50.5337,57.8249 L34.9372,57.8249 L72.824,95.7118 L72.824,57.6902 Z" fill="#1b9af8" fill-opacity="1" />
	</g>
</svg>
